{"glyphs":{"0":{"ha":406,"x_min":0,"x_max":304,"o":"m 71 1085 l 71 1085 l 233 1085 l 304 1015 l 304 71 l 233 0 l 71 0 l 0 71 l 0 1015 l 71 1085 m 190 118 l 190 118 l 190 967 l 186 971 l 118 971 l 114 967 l 114 118 l 118 114 l 186 114 l 190 118 z "},"1":{"ha":309,"x_min":0,"x_max":208,"o":"m 208 0 l 208 0 l 94 0 l 94 971 l 0 971 l 33 1085 l 208 1085 l 208 0 z "},"2":{"ha":425,"x_min":0,"x_max":323,"o":"m 123 359 l 123 359 l 123 113 l 323 113 l 290 0 l 9 0 l 9 406 l 199 595 l 199 966 l 195 971 l 0 971 l 33 1085 l 242 1085 l 313 1014 l 313 549 l 123 359 z "},"3":{"ha":415,"x_min":0,"x_max":313,"o":"m 195 114 l 195 114 l 199 118 l 199 486 l 25 486 l 25 600 l 199 600 l 199 967 l 195 972 l 0 972 l 33 1085 l 243 1085 l 313 1015 l 313 71 l 243 0 l 33 0 l 0 114 l 195 114 z "},"4":{"ha":406,"x_min":0,"x_max":304,"o":"m 190 566 l 190 566 l 190 1085 l 304 1085 l 304 0 l 190 0 l 190 452 l 71 452 l 0 523 l 0 1085 l 114 1085 l 114 570 l 118 566 l 190 566 z "},"5":{"ha":425,"x_min":0,"x_max":323,"o":"m 323 971 l 323 971 l 123 971 l 123 661 l 313 471 l 313 71 l 242 0 l 33 0 l 0 114 l 195 114 l 199 118 l 199 425 l 9 614 l 9 1085 l 291 1085 l 323 971 z "},"6":{"ha":415,"x_min":0,"x_max":313,"o":"m 118 971 l 118 971 l 114 966 l 114 599 l 233 599 l 303 528 l 303 71 l 233 0 l 71 0 l 0 71 l 0 1014 l 71 1085 l 281 1085 l 313 971 l 118 971 m 190 118 l 190 118 l 190 481 l 185 486 l 114 486 l 114 118 l 118 113 l 185 113 l 190 118 z "},"7":{"ha":415,"x_min":0,"x_max":313,"o":"m 33 1085 l 33 1085 l 242 1085 l 313 1014 l 313 0 l 199 0 l 199 966 l 195 971 l 0 971 l 33 1085 z "},"8":{"ha":406,"x_min":0,"x_max":304,"o":"m 233 0 l 233 0 l 71 0 l 0 71 l 0 548 l 29 577 l 0 606 l 0 1015 l 71 1085 l 233 1085 l 304 1015 l 304 606 l 275 577 l 304 548 l 304 71 l 233 0 m 190 118 l 190 118 l 190 500 l 171 520 l 134 520 l 114 500 l 114 118 l 118 114 l 186 114 l 190 118 m 114 967 l 114 967 l 114 653 l 134 634 l 171 634 l 190 653 l 190 967 l 186 972 l 118 972 l 114 967 z "},"9":{"ha":416,"x_min":0,"x_max":314,"o":"m 243 1085 l 243 1085 l 314 1015 l 314 71 l 243 0 l 33 0 l 0 114 l 196 114 l 200 118 l 200 486 l 81 486 l 10 557 l 10 1015 l 81 1085 l 243 1085 m 124 967 l 124 967 l 124 604 l 128 600 l 200 600 l 200 967 l 196 972 l 128 972 l 124 967 z "},"\u0000":{"ha":0,"x_min":0,"x_max":0,"o":""}," ":{"ha":305,"x_min":0,"x_max":0,"o":""},"!":{"ha":216,"x_min":0,"x_max":114,"o":"m 0 197 l 0 197 l 0 1085 l 114 1085 l 114 197 l 0 197 m 0 0 l 0 0 l 0 129 l 114 129 l 114 0 l 0 0 z "},"\"":{"ha":368,"x_min":0,"x_max":266,"o":"m 0 875 l 0 875 l 0 1085 l 106 1085 l 106 875 l 0 875 m 159 875 l 159 875 l 159 1085 l 266 1085 l 266 875 l 159 875 z "},"#":{"ha":519,"x_min":0,"x_max":417,"o":"m 349 1085 l 349 1085 l 349 709 l 417 709 l 417 595 l 349 595 l 349 490 l 417 490 l 417 376 l 349 376 l 349 0 l 235 0 l 235 376 l 182 376 l 182 0 l 68 0 l 68 376 l 0 376 l 0 490 l 68 490 l 68 595 l 0 595 l 0 709 l 68 709 l 68 1085 l 182 1085 l 182 709 l 235 709 l 235 1085 l 349 1085 m 235 595 l 235 595 l 182 595 l 182 490 l 235 490 l 235 595 z "},"$":{"ha":405,"x_min":0,"x_max":303,"o":"m 209 1021 l 209 1021 l 233 1021 l 303 950 l 303 749 l 190 749 l 190 903 l 185 907 l 118 907 l 114 903 l 114 635 l 118 631 l 232 631 l 303 559 l 303 136 l 232 65 l 209 65 l 209 0 l 95 0 l 95 65 l 71 65 l 0 136 l 0 399 l 114 399 l 114 183 l 117 179 l 185 179 l 190 184 l 190 513 l 185 517 l 71 517 l 0 588 l 0 950 l 71 1021 l 95 1021 l 95 1085 l 209 1085 l 209 1021 z "},"%":{"ha":527,"x_min":0,"x_max":425,"o":"m 258 1070 l 258 1070 l 357 1070 l 168 0 l 68 0 l 258 1070 m 285 342 l 285 342 l 376 342 l 425 293 l 425 50 l 376 0 l 285 0 l 235 50 l 235 293 l 285 342 m 319 83 l 319 83 l 342 84 l 342 258 l 319 258 l 319 83 m 190 778 l 190 778 l 141 729 l 50 729 l 0 778 l 0 1021 l 50 1070 l 141 1070 l 190 1021 l 190 778 m 84 812 l 84 812 l 106 812 l 106 987 l 84 987 l 84 812 z "},"&":{"ha":473,"x_min":0,"x_max":372,"o":"m 303 744 l 303 744 l 303 634 l 372 634 l 372 520 l 303 520 l 303 71 l 233 0 l 71 0 l 0 71 l 0 548 l 29 577 l 0 606 l 0 1015 l 71 1085 l 233 1085 l 303 1015 l 303 820 l 190 820 l 190 967 l 185 971 l 118 971 l 114 967 l 114 653 l 133 634 l 190 634 l 190 744 l 303 744 m 190 118 l 190 118 l 190 520 l 133 520 l 114 500 l 114 118 l 118 114 l 185 114 l 190 118 z "},"'":{"ha":208,"x_min":0,"x_max":106,"o":"m 106 1085 l 106 1085 l 106 875 l 0 875 l 0 1085 l 106 1085 z "},"(":{"ha":299,"x_min":0,"x_max":197,"o":"m 0 1015 l 0 1015 l 71 1085 l 197 1085 l 197 971 l 118 971 l 114 967 l 114 118 l 118 114 l 197 114 l 197 0 l 71 0 l 0 71 l 0 1015 z "},")":{"ha":299,"x_min":0,"x_max":197,"o":"m 197 1015 l 197 71 l 126 0 l 0 0 l 0 114 l 79 114 l 83 118 l 83 967 l 79 971 l 0 971 l 0 1085 l 126 1085 l 197 1015 l 197 1015 z "},"*":{"ha":393,"x_min":0,"x_max":292,"o":"m 20 860 l 20 860 l 59 921 l 0 934 l 24 1038 l 92 1022 l 92 1085 l 199 1085 l 199 1025 l 264 1042 l 292 939 l 230 923 l 271 860 l 182 802 l 145 859 l 109 802 l 20 860 z "},"+":{"ha":443,"x_min":0,"x_max":341,"o":"m 224 749 l 224 749 l 224 631 l 341 631 l 341 525 l 224 525 l 224 407 l 117 407 l 117 525 l 0 525 l 0 631 l 117 631 l 117 749 l 224 749 z "},",":{"ha":286,"x_min":0,"x_max":184,"o":"m 184 122 l 184 122 l 111 -68 l 0 -68 l 74 122 l 184 122 z "},"-":{"ha":374,"x_min":0,"x_max":273,"o":"m 273 581 l 273 581 l 273 475 l 0 475 l 0 581 l 273 581 z "},".":{"ha":208,"x_min":0,"x_max":106,"o":"m 0 0 l 0 0 l 0 142 l 106 142 l 106 0 l 0 0 z "},"/":{"ha":450,"x_min":0,"x_max":349,"o":"m 0 0 l 0 0 l 233 1085 l 349 1085 l 115 0 l 0 0 z "},":":{"ha":208,"x_min":0,"x_max":106,"o":"m 0 672 l 0 672 l 0 814 l 106 814 l 106 672 l 0 672 m 0 283 l 0 283 l 0 424 l 106 424 l 106 283 l 0 283 z "},";":{"ha":286,"x_min":0,"x_max":184,"o":"m 0 235 l 0 235 l 74 424 l 184 424 l 111 235 l 0 235 m 66 672 l 66 672 l 66 814 l 172 814 l 172 672 l 66 672 z "},"<":{"ha":359,"x_min":0,"x_max":258,"o":"m 0 523 l 0 523 l 0 608 l 258 746 l 258 633 l 132 565 l 258 498 l 258 384 l 0 523 z "},"=":{"ha":443,"x_min":0,"x_max":341,"o":"m 341 673 l 341 673 l 341 566 l 0 566 l 0 673 l 341 673 m 341 513 l 341 513 l 341 407 l 0 407 l 0 513 l 341 513 z "},">":{"ha":359,"x_min":0,"x_max":258,"o":"m 258 523 l 0 384 l 0 498 l 126 565 l 0 633 l 0 746 l 258 608 l 258 523 l 258 523 z "},"?":{"ha":405,"x_min":0,"x_max":303,"o":"m 0 0 l 0 0 l 0 129 l 114 129 l 114 0 l 0 0 m 71 1085 l 71 1085 l 233 1085 l 303 1014 l 303 614 l 114 424 l 114 197 l 0 197 l 0 471 l 190 661 l 190 967 l 185 971 l 118 971 l 114 967 l 114 819 l 0 819 l 0 1014 l 71 1085 z "},"@":{"ha":557,"x_min":0,"x_max":455,"o":"m 230 929 l 230 929 l 384 929 l 455 859 l 455 71 l 384 0 l 71 0 l 0 71 l 0 1014 l 71 1085 l 387 1085 l 387 971 l 118 971 l 113 967 l 113 118 l 118 114 l 337 114 l 341 118 l 341 156 l 230 156 l 159 227 l 159 859 l 230 929 m 273 811 l 273 811 l 273 274 l 277 270 l 341 270 l 341 811 l 337 815 l 277 815 l 273 811 z "},"A":{"ha":405,"x_min":0,"x_max":303,"o":"m 114 342 l 114 342 l 114 0 l 0 0 l 0 1015 l 71 1085 l 233 1085 l 303 1015 l 303 0 l 189 0 l 189 342 l 114 342 m 114 967 l 114 967 l 114 456 l 189 456 l 189 967 l 185 972 l 118 972 l 114 967 z "},"B":{"ha":405,"x_min":0,"x_max":303,"o":"m 303 71 l 303 71 l 233 0 l 0 0 l 0 1085 l 233 1085 l 303 1014 l 303 606 l 274 576 l 303 547 l 303 71 m 113 633 l 113 633 l 170 633 l 189 653 l 189 967 l 185 971 l 113 971 l 113 633 m 189 118 l 189 118 l 189 500 l 170 519 l 113 519 l 113 114 l 185 114 l 189 118 z "},"C":{"ha":406,"x_min":0,"x_max":304,"o":"m 0 1014 l 0 1014 l 71 1085 l 304 1085 l 304 850 l 190 817 l 190 971 l 118 971 l 114 967 l 114 118 l 118 114 l 190 114 l 190 268 l 304 235 l 304 0 l 71 0 l 0 71 l 0 1014 z "},"D":{"ha":405,"x_min":0,"x_max":303,"o":"m 303 71 l 303 71 l 233 0 l 0 0 l 0 1085 l 233 1085 l 303 1014 l 303 71 m 189 118 l 189 118 l 189 967 l 185 971 l 114 971 l 114 114 l 185 114 l 189 118 z "},"E":{"ha":405,"x_min":0,"x_max":303,"o":"m 303 850 l 303 850 l 189 817 l 189 972 l 118 972 l 113 967 l 113 608 l 265 608 l 265 494 l 113 494 l 113 118 l 118 114 l 189 114 l 189 268 l 303 235 l 303 0 l 71 0 l 0 71 l 0 1015 l 71 1085 l 303 1085 l 303 850 z "},"F":{"ha":406,"x_min":0,"x_max":304,"o":"m 114 494 l 114 494 l 114 0 l 0 0 l 0 1015 l 71 1085 l 304 1085 l 304 850 l 190 817 l 190 972 l 118 972 l 114 967 l 114 608 l 266 608 l 266 494 l 114 494 z "},"G":{"ha":406,"x_min":0,"x_max":304,"o":"m 304 850 l 304 850 l 190 817 l 190 971 l 118 971 l 114 967 l 114 118 l 118 114 l 186 114 l 190 118 l 190 493 l 142 493 l 174 607 l 304 607 l 304 71 l 233 0 l 71 0 l 0 71 l 0 1014 l 71 1085 l 304 1085 l 304 850 z "},"H":{"ha":405,"x_min":0,"x_max":303,"o":"m 114 486 l 114 486 l 114 0 l 0 0 l 0 1085 l 114 1085 l 114 600 l 189 600 l 189 1085 l 303 1085 l 303 0 l 189 0 l 189 486 l 114 486 z "},"I":{"ha":229,"x_min":7,"x_max":121,"o":"m 121 1085 l 121 1085 l 121 0 l 7 0 l 7 1085 l 121 1085 z "},"J":{"ha":406,"x_min":0,"x_max":304,"o":"m 91 1085 l 91 1085 l 304 1085 l 304 71 l 233 0 l 71 0 l 0 71 l 0 311 l 114 344 l 114 118 l 118 114 l 186 114 l 190 118 l 190 971 l 58 971 l 91 1085 z "},"K":{"ha":405,"x_min":0,"x_max":303,"o":"m 190 649 l 190 649 l 190 1085 l 303 1085 l 303 602 l 252 550 l 303 498 l 303 0 l 190 0 l 190 451 l 148 493 l 114 493 l 114 0 l 0 0 l 0 1085 l 114 1085 l 114 607 l 148 607 l 190 649 z "},"L":{"ha":401,"x_min":0,"x_max":313,"o":"m 113 119 l 113 119 l 118 114 l 313 114 l 281 0 l 71 0 l 0 71 l 0 1085 l 113 1085 l 113 119 z "},"M":{"ha":588,"x_min":0,"x_max":486,"o":"m 71 1085 l 71 1085 l 415 1085 l 486 1014 l 486 0 l 372 0 l 372 967 l 368 971 l 300 971 l 300 0 l 186 0 l 186 971 l 119 971 l 114 967 l 114 0 l 0 0 l 0 1014 l 71 1085 z "},"N":{"ha":406,"x_min":0,"x_max":304,"o":"m 71 1085 l 71 1085 l 233 1085 l 304 1015 l 304 0 l 190 0 l 190 967 l 186 971 l 118 971 l 114 967 l 114 0 l 0 0 l 0 1015 l 71 1085 z "},"O":{"ha":406,"x_min":0,"x_max":304,"o":"m 71 1085 l 71 1085 l 233 1085 l 304 1015 l 304 71 l 233 0 l 71 0 l 0 71 l 0 1015 l 71 1085 m 190 118 l 190 118 l 190 967 l 186 971 l 118 971 l 114 967 l 114 118 l 118 114 l 186 114 l 190 118 z "},"P":{"ha":405,"x_min":0,"x_max":303,"o":"m 114 478 l 114 478 l 114 0 l 0 0 l 0 1085 l 233 1085 l 303 1015 l 303 549 l 233 478 l 114 478 m 190 967 l 190 967 l 185 972 l 114 972 l 114 592 l 185 592 l 190 596 l 190 967 z "},"Q":{"ha":404,"x_min":0,"x_max":302,"o":"m 71 1085 l 71 1085 l 232 1085 l 302 1015 l 302 71 l 232 0 l 208 0 l 208 -26 l 294 -26 l 261 -140 l 155 -140 l 95 -80 l 95 0 l 71 0 l 0 71 l 0 1015 l 71 1085 m 189 968 l 189 968 l 185 972 l 118 972 l 114 968 l 114 118 l 118 114 l 185 114 l 189 118 l 189 968 z "},"R":{"ha":404,"x_min":0,"x_max":315,"o":"m 304 549 l 304 549 l 252 498 l 315 0 l 201 0 l 140 478 l 114 478 l 114 0 l 0 0 l 0 1085 l 233 1085 l 304 1015 l 304 549 m 190 967 l 190 967 l 186 972 l 114 972 l 114 592 l 186 592 l 190 596 l 190 967 z "},"S":{"ha":405,"x_min":0,"x_max":303,"o":"m 0 1014 l 0 1014 l 71 1085 l 303 1085 l 303 850 l 189 817 l 189 971 l 118 971 l 113 967 l 113 638 l 118 633 l 232 633 l 303 562 l 303 71 l 233 0 l 0 0 l 0 235 l 113 268 l 113 113 l 185 113 l 189 118 l 189 515 l 185 519 l 71 519 l 0 591 l 0 1014 z "},"T":{"ha":399,"x_min":-20,"x_max":319,"o":"m 286 1085 l 286 1085 l 319 971 l 206 971 l 206 0 l 92 0 l 92 971 l -20 971 l 13 1085 l 286 1085 z "},"U":{"ha":405,"x_min":0,"x_max":303,"o":"m 189 118 l 189 118 l 189 1085 l 303 1085 l 303 71 l 233 0 l 71 0 l 0 71 l 0 1085 l 114 1085 l 114 118 l 118 113 l 185 113 l 189 118 z "},"V":{"ha":406,"x_min":0,"x_max":304,"o":"m 304 208 l 304 208 l 96 0 l 0 0 l 0 1085 l 114 1085 l 114 176 l 190 252 l 190 1085 l 304 1085 l 304 208 z "},"W":{"ha":587,"x_min":0,"x_max":486,"o":"m 372 118 l 372 118 l 372 1085 l 486 1085 l 486 71 l 415 0 l 280 0 l 243 37 l 206 0 l 71 0 l 0 71 l 0 1085 l 114 1085 l 114 118 l 118 114 l 159 114 l 186 140 l 186 1085 l 300 1085 l 300 140 l 327 114 l 368 114 l 372 118 z "},"X":{"ha":405,"x_min":0,"x_max":303,"o":"m 303 0 l 303 0 l 189 0 l 189 424 l 151 462 l 113 424 l 113 0 l 0 0 l 0 471 l 71 543 l 0 614 l 0 1085 l 113 1085 l 113 661 l 151 623 l 189 661 l 189 1085 l 303 1085 l 303 614 l 232 543 l 303 471 l 303 0 z "},"Y":{"ha":406,"x_min":0,"x_max":304,"o":"m 95 0 l 95 0 l 95 447 l 0 542 l 0 1085 l 114 1085 l 114 589 l 152 551 l 190 589 l 190 1085 l 304 1085 l 304 542 l 209 447 l 209 0 l 95 0 z "},"Z":{"ha":413,"x_min":-7,"x_max":325,"o":"m 321 113 l 321 113 l 288 0 l -7 0 l 186 971 l -3 971 l 30 1085 l 325 1085 l 132 113 l 321 113 z "},"[":{"ha":298,"x_min":0,"x_max":197,"o":"m 0 0 l 0 0 l 0 1085 l 197 1085 l 197 971 l 113 971 l 113 114 l 197 114 l 197 0 l 0 0 z "},"\\":{"ha":450,"x_min":0,"x_max":349,"o":"m 349 0 l 233 0 l 0 1085 l 115 1085 l 349 0 l 349 0 z "},"]":{"ha":298,"x_min":0,"x_max":197,"o":"m 197 0 l 0 0 l 0 114 l 83 114 l 83 971 l 0 971 l 0 1085 l 197 1085 l 197 0 l 197 0 z "},"^":{"ha":414,"x_min":0,"x_max":312,"o":"m 116 1085 l 116 1085 l 196 1085 l 312 873 l 208 873 l 156 959 l 104 873 l 0 873 l 116 1085 z "},"_":{"ha":572,"x_min":0,"x_max":470,"o":"m 0 -106 l 0 -106 l 0 0 l 470 0 l 470 -106 l 0 -106 z "},"`":{"ha":353,"x_min":0,"x_max":251,"o":"m 251 1153 l 144 1153 l 0 1297 l 106 1297 l 251 1153 l 251 1153 z "},"a":{"ha":405,"x_min":0,"x_max":303,"o":"m 114 342 l 114 342 l 114 0 l 0 0 l 0 1015 l 71 1085 l 233 1085 l 303 1015 l 303 0 l 189 0 l 189 342 l 114 342 m 114 967 l 114 967 l 114 456 l 189 456 l 189 967 l 185 972 l 118 972 l 114 967 z "},"b":{"ha":405,"x_min":0,"x_max":303,"o":"m 303 71 l 303 71 l 233 0 l 0 0 l 0 1085 l 233 1085 l 303 1014 l 303 606 l 274 576 l 303 547 l 303 71 m 113 633 l 113 633 l 170 633 l 189 653 l 189 967 l 185 971 l 113 971 l 113 633 m 189 118 l 189 118 l 189 500 l 170 519 l 113 519 l 113 114 l 185 114 l 189 118 z "},"c":{"ha":408,"x_min":0,"x_max":313,"o":"m 118 971 l 118 971 l 114 967 l 114 118 l 118 114 l 313 114 l 281 0 l 71 0 l 0 71 l 0 1014 l 71 1085 l 281 1085 l 313 971 l 118 971 z "},"d":{"ha":405,"x_min":0,"x_max":303,"o":"m 303 71 l 303 71 l 233 0 l 0 0 l 0 1085 l 233 1085 l 303 1014 l 303 71 m 189 118 l 189 118 l 189 967 l 185 971 l 114 971 l 114 114 l 185 114 l 189 118 z "},"e":{"ha":408,"x_min":0,"x_max":313,"o":"m 281 0 l 281 0 l 71 0 l 0 71 l 0 1014 l 71 1085 l 281 1085 l 313 971 l 118 971 l 114 967 l 114 607 l 266 607 l 266 493 l 114 493 l 114 118 l 118 114 l 313 114 l 281 0 z "},"f":{"ha":408,"x_min":0,"x_max":313,"o":"m 113 493 l 113 493 l 113 0 l 0 0 l 0 1014 l 71 1085 l 281 1085 l 313 971 l 118 971 l 113 967 l 113 607 l 265 607 l 265 493 l 113 493 z "},"g":{"ha":406,"x_min":0,"x_max":304,"o":"m 304 705 l 304 705 l 190 673 l 190 967 l 185 971 l 118 971 l 114 967 l 114 118 l 118 114 l 185 114 l 190 118 l 190 493 l 142 493 l 174 607 l 304 607 l 304 71 l 233 0 l 71 0 l 0 71 l 0 1014 l 71 1085 l 233 1085 l 304 1014 l 304 705 z "},"h":{"ha":405,"x_min":0,"x_max":303,"o":"m 114 486 l 114 486 l 114 0 l 0 0 l 0 1085 l 114 1085 l 114 600 l 189 600 l 189 1085 l 303 1085 l 303 0 l 189 0 l 189 486 l 114 486 z "},"i":{"ha":229,"x_min":7,"x_max":121,"o":"m 121 1085 l 121 1085 l 121 0 l 7 0 l 7 1085 l 121 1085 z "},"j":{"ha":406,"x_min":0,"x_max":304,"o":"m 190 1085 l 190 1085 l 304 1085 l 304 71 l 233 0 l 71 0 l 0 71 l 0 311 l 114 344 l 114 118 l 118 113 l 186 113 l 190 118 l 190 1085 z "},"k":{"ha":405,"x_min":0,"x_max":303,"o":"m 190 649 l 190 649 l 190 1085 l 303 1085 l 303 602 l 252 550 l 303 498 l 303 0 l 190 0 l 190 451 l 148 493 l 114 493 l 114 0 l 0 0 l 0 1085 l 114 1085 l 114 607 l 148 607 l 190 649 z "},"l":{"ha":401,"x_min":0,"x_max":313,"o":"m 113 119 l 113 119 l 118 114 l 313 114 l 281 0 l 71 0 l 0 71 l 0 1085 l 113 1085 l 113 119 z "},"m":{"ha":588,"x_min":0,"x_max":486,"o":"m 71 1085 l 71 1085 l 415 1085 l 486 1014 l 486 0 l 372 0 l 372 967 l 368 971 l 300 971 l 300 0 l 186 0 l 186 971 l 119 971 l 114 967 l 114 0 l 0 0 l 0 1014 l 71 1085 z "},"n":{"ha":406,"x_min":0,"x_max":304,"o":"m 71 1085 l 71 1085 l 71 1085 l 233 1085 l 304 1015 l 304 0 l 190 0 l 190 967 l 186 971 l 118 971 l 114 967 l 114 0 l 0 0 l 0 1015 l 71 1085 z "},"o":{"ha":406,"x_min":0,"x_max":304,"o":"m 71 1085 l 71 1085 l 233 1085 l 304 1015 l 304 71 l 233 0 l 71 0 l 0 71 l 0 1015 l 71 1085 m 190 118 l 190 118 l 190 967 l 186 971 l 118 971 l 114 967 l 114 118 l 118 114 l 186 114 l 190 118 z "},"p":{"ha":405,"x_min":0,"x_max":303,"o":"m 114 478 l 114 478 l 114 0 l 0 0 l 0 1085 l 233 1085 l 303 1015 l 303 549 l 233 478 l 114 478 m 190 967 l 190 967 l 185 972 l 114 972 l 114 592 l 185 592 l 190 596 l 190 967 z "},"q":{"ha":404,"x_min":0,"x_max":302,"o":"m 71 1085 l 71 1085 l 232 1085 l 302 1015 l 302 71 l 232 0 l 208 0 l 208 -26 l 294 -26 l 261 -140 l 155 -140 l 95 -80 l 95 0 l 71 0 l 0 71 l 0 1015 l 71 1085 m 189 968 l 189 968 l 185 972 l 118 972 l 114 968 l 114 118 l 118 114 l 185 114 l 189 118 l 189 968 z "},"r":{"ha":404,"x_min":0,"x_max":315,"o":"m 304 549 l 304 549 l 252 498 l 315 0 l 201 0 l 140 478 l 114 478 l 114 0 l 0 0 l 0 1085 l 233 1085 l 304 1015 l 304 549 m 190 967 l 190 967 l 186 972 l 114 972 l 114 592 l 186 592 l 190 596 l 190 967 z "},"s":{"ha":425,"x_min":0,"x_max":323,"o":"m 128 971 l 128 971 l 124 967 l 124 638 l 129 633 l 242 633 l 314 562 l 314 71 l 243 0 l 33 0 l 0 113 l 195 113 l 200 118 l 200 515 l 195 519 l 81 519 l 10 591 l 10 1014 l 81 1085 l 291 1085 l 323 971 l 128 971 z "},"t":{"ha":399,"x_min":-20,"x_max":319,"o":"m 286 1085 l 286 1085 l 319 971 l 206 971 l 206 0 l 92 0 l 92 971 l -20 971 l 13 1085 l 286 1085 z "},"u":{"ha":405,"x_min":0,"x_max":303,"o":"m 189 118 l 189 118 l 189 1085 l 303 1085 l 303 71 l 233 0 l 71 0 l 0 71 l 0 1085 l 114 1085 l 114 118 l 118 113 l 185 113 l 189 118 z "},"v":{"ha":406,"x_min":0,"x_max":304,"o":"m 304 208 l 304 208 l 96 0 l 0 0 l 0 1085 l 114 1085 l 114 176 l 190 252 l 190 1085 l 304 1085 l 304 208 z "},"w":{"ha":587,"x_min":0,"x_max":486,"o":"m 372 118 l 372 118 l 372 1085 l 486 1085 l 486 71 l 415 0 l 280 0 l 243 37 l 206 0 l 71 0 l 0 71 l 0 1085 l 114 1085 l 114 118 l 118 114 l 159 114 l 186 140 l 186 1085 l 300 1085 l 300 140 l 327 114 l 368 114 l 372 118 z "},"x":{"ha":405,"x_min":0,"x_max":303,"o":"m 303 0 l 303 0 l 189 0 l 189 424 l 151 462 l 113 424 l 113 0 l 0 0 l 0 471 l 71 543 l 0 614 l 0 1085 l 113 1085 l 113 661 l 151 623 l 189 661 l 189 1085 l 303 1085 l 303 614 l 232 543 l 303 471 l 303 0 z "},"y":{"ha":406,"x_min":0,"x_max":304,"o":"m 95 0 l 95 0 l 95 447 l 0 542 l 0 1085 l 114 1085 l 114 589 l 152 551 l 190 589 l 190 1085 l 304 1085 l 304 542 l 209 447 l 209 0 l 95 0 z "},"z":{"ha":413,"x_min":-7,"x_max":325,"o":"m 321 113 l 321 113 l 288 0 l -7 0 l 186 971 l -3 971 l 30 1085 l 325 1085 l 132 113 l 321 113 z "},"{":{"ha":367,"x_min":0,"x_max":265,"o":"m 68 1014 l 68 1014 l 139 1085 l 265 1085 l 265 971 l 186 971 l 182 967 l 182 572 l 153 543 l 182 513 l 182 118 l 186 114 l 265 114 l 265 0 l 139 0 l 68 71 l 68 466 l 49 486 l 0 486 l 0 600 l 49 600 l 68 619 l 68 1014 z "},"|":{"ha":210,"x_min":0,"x_max":109,"o":"m 0 1069 l 109 1069 l 109 -283 l 0 -283 l 0 1069 z "},"}":{"ha":367,"x_min":0,"x_max":265,"o":"m 197 1014 l 197 619 l 216 600 l 265 600 l 265 486 l 216 486 l 197 466 l 197 71 l 126 0 l 0 0 l 0 114 l 79 114 l 83 118 l 83 513 l 113 543 l 83 572 l 83 967 l 79 971 l 0 971 l 0 1085 l 126 1085 l 197 1014 l 197 1014 z "},"~":{"ha":496,"x_min":0,"x_max":395,"o":"m 289 635 l 289 635 l 289 678 l 395 678 l 395 591 l 326 522 l 113 522 l 106 516 l 106 473 l 0 473 l 0 560 l 69 629 l 282 629 l 289 635 z "},"¡":{"ha":216,"x_min":0,"x_max":114,"o":"m 0 752 l 114 752 l 114 -136 l 0 -136 l 0 752 l 0 752 m 0 949 l 114 949 l 114 820 l 0 820 l 0 949 l 0 949 z "},"¢":{"ha":405,"x_min":0,"x_max":303,"o":"m 208 1021 l 208 1021 l 233 1021 l 303 949 l 303 680 l 189 680 l 189 903 l 185 907 l 118 907 l 113 903 l 113 183 l 118 179 l 185 179 l 189 183 l 189 399 l 303 399 l 303 136 l 233 65 l 208 65 l 208 0 l 94 0 l 94 65 l 71 65 l 0 136 l 0 949 l 71 1021 l 94 1021 l 94 1085 l 208 1085 l 208 1021 z "},"£":{"ha":466,"x_min":0,"x_max":364,"o":"m 174 486 l 174 486 l 174 113 l 364 113 l 364 0 l 0 0 l 0 96 l 60 156 l 60 486 l 16 486 l 16 599 l 60 599 l 60 1014 l 131 1085 l 292 1085 l 363 1014 l 363 819 l 250 819 l 250 967 l 245 971 l 178 971 l 174 967 l 174 599 l 273 599 l 273 486 l 174 486 z "},"¤":{"ha":414,"x_min":0,"x_max":313,"o":"m 248 720 l 248 720 l 313 656 l 281 623 l 281 623 l 281 505 l 281 504 l 313 471 l 248 407 l 216 439 l 215 438 l 98 438 l 96 439 l 64 407 l 0 471 l 33 504 l 31 505 l 31 623 l 32 623 l 0 656 l 64 720 l 96 688 l 98 689 l 215 689 l 216 688 l 248 720 m 178 597 l 178 597 l 136 597 l 122 585 l 122 543 l 136 530 l 178 530 l 191 543 l 191 585 l 178 597 z "},"¥":{"ha":406,"x_min":0,"x_max":304,"o":"m 190 589 l 190 589 l 190 1085 l 304 1085 l 304 543 l 286 524 l 304 524 l 304 410 l 209 410 l 209 372 l 304 372 l 304 258 l 209 258 l 209 0 l 95 0 l 95 258 l 0 258 l 0 372 l 95 372 l 95 410 l 0 410 l 0 524 l 19 524 l 0 543 l 0 1085 l 114 1085 l 114 589 l 152 551 l 190 589 z "},"¦":{"ha":210,"x_min":0,"x_max":109,"o":"m 0 252 l 109 252 l 109 -283 l 0 -283 l 0 252 m 0 1070 l 109 1070 l 109 535 l 0 535 l 0 1070 z "},"§":{"ha":406,"x_min":0,"x_max":304,"o":"m 304 819 l 304 819 l 190 819 l 190 967 l 186 971 l 119 971 l 114 967 l 114 749 l 119 744 l 233 744 l 304 673 l 304 411 l 290 397 l 303 383 l 303 72 l 233 0 l 71 0 l 0 71 l 0 266 l 114 266 l 114 118 l 117 115 l 185 115 l 190 119 l 190 336 l 186 339 l 71 339 l 0 411 l 0 673 l 14 688 l 0 701 l 0 1014 l 71 1085 l 233 1085 l 304 1014 l 304 819 m 114 459 l 114 459 l 119 454 l 186 454 l 190 458 l 190 626 l 185 630 l 118 630 l 114 626 l 114 459 z "},"¨":{"ha":351,"x_min":0,"x_max":250,"o":"m 0 1153 l 0 1153 l 0 1244 l 91 1244 l 91 1153 l 0 1153 m 250 1244 l 250 1244 l 250 1153 l 159 1153 l 159 1244 l 250 1244 z "},"©":{"ha":542,"x_min":0,"x_max":440,"o":"m 168 937 l 168 937 l 272 937 l 334 876 l 334 702 l 250 702 l 250 841 l 237 854 l 203 854 l 190 841 l 190 199 l 203 186 l 237 186 l 250 199 l 250 338 l 334 338 l 334 165 l 272 103 l 168 103 l 106 165 l 106 876 l 168 937 m 64 1040 l 64 1040 l 376 1040 l 440 976 l 440 64 l 376 0 l 64 0 l 0 64 l 0 976 l 64 1040 m 99 84 l 99 84 l 341 84 l 357 99 l 357 941 l 341 956 l 99 956 l 83 941 l 83 99 l 99 84 z "},"ª":{"ha":329,"x_min":0,"x_max":227,"o":"m 161 1085 l 161 1085 l 227 1019 l 227 622 l 66 622 l 0 688 l 0 851 l 66 918 l 129 918 l 129 977 l 120 986 l 15 986 l 15 1085 l 161 1085 m 98 810 l 98 810 l 98 729 l 107 720 l 129 720 l 129 819 l 107 819 l 98 810 z "},"«":{"ha":504,"x_min":0,"x_max":402,"o":"m 189 519 l 189 519 l 189 401 l 0 534 l 0 614 l 189 746 l 189 629 l 111 574 l 189 519 m 402 519 l 402 519 l 402 401 l 212 534 l 212 614 l 402 746 l 402 629 l 323 574 l 402 519 z "},"®":{"ha":542,"x_min":0,"x_max":440,"o":"m 106 937 l 106 937 l 272 937 l 334 876 l 334 560 l 295 521 l 334 481 l 334 103 l 251 103 l 251 447 l 199 498 l 190 498 l 190 103 l 106 103 l 106 937 m 190 854 l 190 854 l 190 582 l 237 582 l 251 595 l 251 841 l 237 854 l 190 854 m 64 1040 l 64 1040 l 376 1040 l 440 976 l 440 64 l 376 0 l 64 0 l 0 64 l 0 976 l 64 1040 m 99 84 l 99 84 l 342 84 l 357 99 l 357 941 l 342 956 l 99 956 l 83 941 l 83 99 l 99 84 z "},"°":{"ha":352,"x_min":0,"x_max":250,"o":"m 66 1017 l 66 1017 l 184 1017 l 250 951 l 250 833 l 184 767 l 66 767 l 0 833 l 0 951 l 66 1017 m 146 926 l 146 926 l 104 926 l 91 913 l 91 871 l 104 858 l 146 858 l 159 871 l 159 913 l 146 926 z "},"±":{"ha":443,"x_min":0,"x_max":341,"o":"m 224 833 l 224 833 l 224 715 l 341 715 l 341 609 l 224 609 l 224 491 l 117 491 l 117 609 l 0 609 l 0 715 l 117 715 l 117 833 l 224 833 m 0 339 l 0 339 l 0 446 l 341 446 l 341 339 l 0 339 z "},"²":{"ha":337,"x_min":0,"x_max":235,"o":"m 0 1085 l 0 1085 l 169 1085 l 235 1019 l 235 935 l 106 723 l 235 723 l 235 625 l 0 625 l 0 743 l 136 968 l 136 978 l 128 986 l 0 986 l 0 1085 z "},"³":{"ha":336,"x_min":0,"x_max":235,"o":"m 0 1085 l 0 1085 l 168 1085 l 235 1019 l 235 688 l 168 622 l 0 622 l 0 721 l 127 721 l 136 730 l 136 804 l 22 804 l 22 903 l 136 903 l 136 978 l 127 986 l 0 986 l 0 1085 z "},"´":{"ha":353,"x_min":0,"x_max":251,"o":"m 0 1153 l 0 1153 l 144 1297 l 251 1297 l 106 1153 l 0 1153 z "},"µ":{"ha":406,"x_min":0,"x_max":304,"o":"m 190 254 l 190 254 l 190 1085 l 304 1085 l 304 208 l 233 136 l 114 136 l 114 0 l 0 0 l 0 1085 l 114 1085 l 114 285 l 149 250 l 186 250 l 190 254 z "},"¶":{"ha":519,"x_min":0,"x_max":417,"o":"m 311 949 l 311 949 l 417 949 l 417 0 l 311 0 l 311 949 m 0 877 l 0 877 l 71 948 l 273 948 l 273 0 l 167 0 l 167 478 l 71 478 l 0 549 l 0 877 z "},"¸":{"ha":283,"x_min":0,"x_max":182,"o":"m 106 -31 l 106 -31 l 131 -31 l 182 -81 l 182 -169 l 131 -220 l 0 -220 l 0 -136 l 91 -136 l 98 -132 l 98 -119 l 91 -114 l 22 -114 l 22 0 l 106 0 l 106 -31 z "},"¹":{"ha":245,"x_min":0,"x_max":144,"o":"m 0 986 l 0 986 l 0 1085 l 144 1085 l 144 622 l 45 622 l 45 986 l 0 986 z "},"º":{"ha":337,"x_min":0,"x_max":235,"o":"m 66 1085 l 66 1085 l 169 1085 l 235 1019 l 235 688 l 169 622 l 66 622 l 0 688 l 0 1019 l 66 1085 m 136 730 l 136 730 l 136 978 l 128 986 l 107 986 l 98 978 l 98 730 l 107 721 l 128 721 l 136 730 z "},"»":{"ha":504,"x_min":0,"x_max":402,"o":"m 212 519 l 290 574 l 212 629 l 212 746 l 402 614 l 402 534 l 212 401 l 212 519 l 212 519 m 0 519 l 78 574 l 0 629 l 0 746 l 189 614 l 189 534 l 0 401 l 0 519 l 0 519 z "},"¼":{"ha":572,"x_min":0,"x_max":471,"o":"m 290 1074 l 290 1074 l 382 1074 l 97 3 l 5 3 l 290 1074 m 372 235 l 372 235 l 372 463 l 471 463 l 471 0 l 372 0 l 372 136 l 302 136 l 235 203 l 235 463 l 334 463 l 334 243 l 342 235 l 372 235 m 45 614 l 45 614 l 45 979 l 0 979 l 0 1077 l 144 1077 l 144 614 l 45 614 z "},"½":{"ha":580,"x_min":0,"x_max":478,"o":"m 290 1074 l 290 1074 l 382 1074 l 97 3 l 5 3 l 290 1074 m 45 614 l 45 614 l 45 979 l 0 979 l 0 1077 l 144 1077 l 144 614 l 45 614 m 243 460 l 243 460 l 412 460 l 478 394 l 478 311 l 349 98 l 478 98 l 478 0 l 243 0 l 243 119 l 379 344 l 379 353 l 371 361 l 243 361 l 243 460 z "},"¾":{"ha":640,"x_min":0,"x_max":538,"o":"m 358 1074 l 358 1074 l 450 1074 l 165 3 l 73 3 l 358 1074 m 440 235 l 440 235 l 440 463 l 538 463 l 538 0 l 440 0 l 440 136 l 370 136 l 303 203 l 303 463 l 402 463 l 402 243 l 410 235 l 440 235 m 235 681 l 235 681 l 168 614 l 0 614 l 0 713 l 127 713 l 136 722 l 136 796 l 22 796 l 22 895 l 136 895 l 136 970 l 127 979 l 0 979 l 0 1077 l 168 1077 l 235 1010 l 235 681 z "},"¿":{"ha":405,"x_min":0,"x_max":303,"o":"m 303 948 l 303 948 l 303 819 l 190 819 l 190 948 l 303 948 m 233 -137 l 233 -137 l 71 -137 l 0 -66 l 0 334 l 190 524 l 190 751 l 303 751 l 303 477 l 114 287 l 114 -19 l 118 -24 l 185 -24 l 190 -19 l 190 128 l 303 128 l 303 -66 l 233 -137 z "},"À":{"ha":405,"x_min":0,"x_max":303,"o":"m 114 342 l 114 342 l 114 0 l 0 0 l 0 1015 l 71 1085 l 233 1085 l 303 1015 l 303 0 l 189 0 l 189 342 l 114 342 m 114 967 l 114 967 l 114 456 l 189 456 l 189 967 l 185 972 l 118 972 l 114 967 m 277 1153 l 170 1153 l 26 1297 l 133 1297 l 277 1153 l 277 1153 z "},"Á":{"ha":405,"x_min":0,"x_max":303,"o":"m 114 342 l 114 342 l 114 0 l 0 0 l 0 1015 l 71 1085 l 233 1085 l 303 1015 l 303 0 l 189 0 l 189 342 l 114 342 m 114 967 l 114 967 l 114 456 l 189 456 l 189 967 l 185 972 l 118 972 l 114 967 m 26 1153 l 26 1153 l 170 1297 l 277 1297 l 133 1153 l 26 1153 z "},"Â":{"ha":405,"x_min":0,"x_max":303,"o":"m 114 342 l 114 342 l 114 0 l 0 0 l 0 1015 l 71 1085 l 233 1085 l 303 1015 l 303 0 l 189 0 l 189 342 l 114 342 m 114 967 l 114 967 l 114 456 l 189 456 l 189 967 l 185 972 l 118 972 l 114 967 m 180 1297 l 180 1297 l 293 1153 l 199 1153 l 152 1211 l 104 1153 l 10 1153 l 123 1297 l 180 1297 z "},"Ã":{"ha":405,"x_min":0,"x_max":303,"o":"m 114 342 l 114 342 l 114 0 l 0 0 l 0 1015 l 71 1085 l 233 1085 l 303 1015 l 303 0 l 189 0 l 189 342 l 114 342 m 114 967 l 114 967 l 114 456 l 189 456 l 189 967 l 185 972 l 118 972 l 114 967 m 106 1182 l 106 1182 l 106 1153 l 30 1153 l 31 1214 l 79 1263 l 193 1263 l 197 1267 l 197 1297 l 273 1297 l 273 1236 l 224 1187 l 111 1187 l 106 1182 z "},"Ä":{"ha":405,"x_min":0,"x_max":303,"o":"m 114 342 l 114 342 l 114 0 l 0 0 l 0 1015 l 71 1085 l 233 1085 l 303 1015 l 303 0 l 189 0 l 189 342 l 114 342 m 114 967 l 114 967 l 114 456 l 189 456 l 189 967 l 185 972 l 118 972 l 114 967 m 187 1153 l 187 1244 l 279 1244 l 279 1153 l 187 1153 m 116 1244 l 116 1153 l 24 1153 l 24 1244 l 116 1244 z "},"Å":{"ha":405,"x_min":0,"x_max":303,"o":"m 114 342 l 114 342 l 114 0 l 0 0 l 0 1015 l 71 1085 l 233 1085 l 303 1015 l 303 0 l 189 0 l 189 342 l 114 342 m 114 967 l 114 967 l 114 456 l 189 456 l 189 967 l 185 972 l 118 972 l 114 967 m 106 1221 l 106 1221 l 197 1221 l 246 1171 l 246 1080 l 197 1031 l 106 1031 l 57 1080 l 57 1171 l 106 1221 m 133 1140 l 133 1140 l 133 1111 l 137 1107 l 166 1107 l 171 1112 l 171 1140 l 166 1145 l 137 1145 l 133 1140 z "},"Æ":{"ha":605,"x_min":0,"x_max":503,"o":"m 304 493 l 304 493 l 304 113 l 503 113 l 471 0 l 190 0 l 190 341 l 114 341 l 114 0 l 0 0 l 0 1014 l 71 1085 l 471 1085 l 503 971 l 304 971 l 304 607 l 455 607 l 455 493 l 304 493 m 114 967 l 114 967 l 114 455 l 190 455 l 190 971 l 118 971 l 114 967 z "},"Ç":{"ha":405,"x_min":0,"x_max":303,"o":"m 0 1014 l 0 1014 l 71 1085 l 304 1085 l 304 850 l 190 817 l 190 971 l 118 971 l 114 967 l 114 118 l 118 114 l 190 114 l 190 268 l 304 235 l 304 0 l 71 0 l 0 71 l 0 1014 m 180 -31 l 180 -31 l 205 -31 l 256 -81 l 256 -169 l 205 -220 l 75 -220 l 75 -136 l 165 -136 l 173 -132 l 173 -119 l 165 -114 l 97 -114 l 97 0 l 180 0 l 180 -31 z "},"È":{"ha":405,"x_min":0,"x_max":303,"o":"m 303 850 l 303 850 l 189 817 l 189 972 l 118 972 l 113 967 l 113 608 l 265 608 l 265 494 l 113 494 l 113 118 l 118 114 l 189 114 l 189 268 l 303 235 l 303 0 l 71 0 l 0 71 l 0 1015 l 71 1085 l 303 1085 l 303 850 m 277 1153 l 170 1153 l 26 1297 l 133 1297 l 277 1153 l 277 1153 z "},"É":{"ha":405,"x_min":0,"x_max":303,"o":"m 303 850 l 303 850 l 189 817 l 189 972 l 118 972 l 113 967 l 113 608 l 265 608 l 265 494 l 113 494 l 113 118 l 118 114 l 189 114 l 189 268 l 303 235 l 303 0 l 71 0 l 0 71 l 0 1015 l 71 1085 l 303 1085 l 303 850 m 26 1153 l 26 1153 l 170 1297 l 277 1297 l 133 1153 l 26 1153 z "},"Ê":{"ha":405,"x_min":0,"x_max":303,"o":"m 303 850 l 303 850 l 189 817 l 189 972 l 118 972 l 113 967 l 113 608 l 265 608 l 265 494 l 113 494 l 113 118 l 118 114 l 189 114 l 189 268 l 303 235 l 303 0 l 71 0 l 0 71 l 0 1015 l 71 1085 l 303 1085 l 303 850 m 180 1297 l 180 1297 l 293 1153 l 199 1153 l 152 1211 l 104 1153 l 10 1153 l 123 1297 l 180 1297 z "},"Ë":{"ha":405,"x_min":0,"x_max":303,"o":"m 303 850 l 303 850 l 189 817 l 189 972 l 118 972 l 113 967 l 113 608 l 265 608 l 265 494 l 113 494 l 113 118 l 118 114 l 189 114 l 189 268 l 303 235 l 303 0 l 71 0 l 0 71 l 0 1015 l 71 1085 l 303 1085 l 303 850 m 187 1153 l 187 1244 l 279 1244 l 279 1153 l 187 1153 m 116 1244 l 116 1153 l 24 1153 l 24 1244 l 116 1244 z "},"Ì":{"ha":229,"x_min":-131,"x_max":121,"o":"m 121 1085 l 121 1085 l 121 0 l 7 0 l 7 1085 l 121 1085 m 121 1152 l 14 1152 l -130 1296 l -24 1296 l 121 1152 l 121 1152 z "},"Í":{"ha":229,"x_min":7,"x_max":258,"o":"m 121 1085 l 121 1085 l 121 0 l 7 0 l 7 1085 l 121 1085 m 7 1153 l 7 1153 l 151 1297 l 258 1297 l 113 1153 l 7 1153 z "},"Î":{"ha":229,"x_min":-75,"x_max":208,"o":"m 121 1085 l 121 1085 l 121 0 l 7 0 l 7 1085 l 121 1085 m 94 1297 l 94 1297 l 208 1153 l 115 1153 l 66 1211 l 18 1153 l -75 1153 l 38 1297 l 94 1297 z "},"Ï":{"ha":229,"x_min":-61,"x_max":189,"o":"m 121 1085 l 121 1085 l 121 0 l 7 0 l 7 1085 l 121 1085 m -61 1154 l -61 1154 l -61 1245 l 30 1245 l 30 1154 l -61 1154 m 189 1245 l 189 1245 l 189 1154 l 98 1154 l 98 1245 l 189 1245 z "},"Ð":{"ha":454,"x_min":0,"x_max":353,"o":"m 50 1085 l 50 1085 l 282 1085 l 353 1014 l 353 71 l 282 0 l 50 0 l 50 486 l 0 486 l 0 600 l 50 600 l 50 1085 m 239 118 l 239 118 l 239 967 l 235 971 l 163 971 l 163 600 l 212 600 l 212 486 l 163 486 l 163 114 l 235 114 l 239 118 z "},"Ñ":{"ha":406,"x_min":0,"x_max":304,"o":"m 71 1085 l 71 1085 l 71 1085 l 233 1085 l 304 1015 l 304 0 l 190 0 l 190 967 l 186 971 l 118 971 l 114 967 l 114 0 l 0 0 l 0 1015 l 71 1085 m 106 1182 l 106 1182 l 106 1153 l 31 1153 l 31 1214 l 80 1263 l 193 1263 l 198 1267 l 198 1297 l 274 1297 l 274 1236 l 224 1187 l 111 1187 l 106 1182 z "},"Ò":{"ha":406,"x_min":0,"x_max":304,"o":"m 71 1085 l 71 1085 l 233 1085 l 304 1015 l 304 71 l 233 0 l 71 0 l 0 71 l 0 1015 l 71 1085 m 190 118 l 190 118 l 190 967 l 186 971 l 118 971 l 114 967 l 114 118 l 118 114 l 186 114 l 190 118 m 277 1153 l 170 1153 l 26 1297 l 133 1297 l 277 1153 l 277 1153 z "},"Ó":{"ha":406,"x_min":0,"x_max":304,"o":"m 71 1085 l 71 1085 l 233 1085 l 304 1015 l 304 71 l 233 0 l 71 0 l 0 71 l 0 1015 l 71 1085 m 190 118 l 190 118 l 190 967 l 186 971 l 118 971 l 114 967 l 114 118 l 118 114 l 186 114 l 190 118 m 26 1153 l 26 1153 l 170 1297 l 277 1297 l 133 1153 l 26 1153 z "},"Ô":{"ha":406,"x_min":0,"x_max":304,"o":"m 71 1085 l 71 1085 l 233 1085 l 304 1015 l 304 71 l 233 0 l 71 0 l 0 71 l 0 1015 l 71 1085 m 190 118 l 190 118 l 190 967 l 186 971 l 118 971 l 114 967 l 114 118 l 118 114 l 186 114 l 190 118 m 180 1297 l 180 1297 l 293 1153 l 199 1153 l 152 1211 l 104 1153 l 10 1153 l 123 1297 l 180 1297 z "},"Õ":{"ha":406,"x_min":0,"x_max":304,"o":"m 71 1085 l 71 1085 l 233 1085 l 304 1015 l 304 71 l 233 0 l 71 0 l 0 71 l 0 1015 l 71 1085 m 190 118 l 190 118 l 190 967 l 186 971 l 118 971 l 114 967 l 114 118 l 118 114 l 186 114 l 190 118 m 106 1182 l 106 1182 l 106 1153 l 30 1153 l 31 1214 l 79 1263 l 193 1263 l 197 1267 l 197 1297 l 273 1297 l 273 1236 l 224 1187 l 111 1187 l 106 1182 z "},"Ö":{"ha":406,"x_min":0,"x_max":304,"o":"m 71 1085 l 71 1085 l 233 1085 l 304 1015 l 304 71 l 233 0 l 71 0 l 0 71 l 0 1015 l 71 1085 m 190 118 l 190 118 l 190 967 l 186 971 l 118 971 l 114 967 l 114 118 l 118 114 l 186 114 l 190 118 m 187 1153 l 187 1244 l 279 1244 l 279 1153 l 187 1153 m 116 1244 l 116 1153 l 24 1153 l 24 1244 l 116 1244 z "},"×":{"ha":429,"x_min":0,"x_max":328,"o":"m 252 734 l 252 734 l 328 659 l 239 571 l 328 482 l 252 407 l 163 496 l 75 407 l 0 482 l 89 571 l 0 659 l 75 734 l 163 646 l 252 734 z "},"Ø":{"ha":406,"x_min":0,"x_max":304,"o":"m 71 1085 l 71 1085 l 233 1085 l 304 1014 l 304 71 l 233 0 l 71 0 l 0 71 l 0 1014 l 71 1085 m 190 118 l 190 118 l 190 490 l 114 264 l 114 118 l 118 114 l 186 114 l 190 118 m 114 967 l 114 967 l 114 595 l 190 821 l 190 967 l 186 971 l 118 971 l 114 967 z "},"Ù":{"ha":405,"x_min":0,"x_max":303,"o":"m 189 118 l 189 118 l 189 1085 l 303 1085 l 303 71 l 233 0 l 71 0 l 0 71 l 0 1085 l 114 1085 l 114 118 l 118 113 l 185 113 l 189 118 m 277 1153 l 170 1153 l 26 1297 l 133 1297 l 277 1153 l 277 1153 z "},"Ú":{"ha":405,"x_min":0,"x_max":303,"o":"m 189 118 l 189 118 l 189 1085 l 303 1085 l 303 71 l 233 0 l 71 0 l 0 71 l 0 1085 l 114 1085 l 114 118 l 118 113 l 185 113 l 189 118 m 26 1153 l 26 1153 l 170 1297 l 277 1297 l 133 1153 l 26 1153 z "},"Û":{"ha":405,"x_min":0,"x_max":303,"o":"m 189 118 l 189 118 l 189 1085 l 303 1085 l 303 71 l 233 0 l 71 0 l 0 71 l 0 1085 l 114 1085 l 114 118 l 118 113 l 185 113 l 189 118 m 180 1297 l 180 1297 l 293 1153 l 199 1153 l 152 1211 l 104 1153 l 10 1153 l 123 1297 l 180 1297 z "},"Ü":{"ha":405,"x_min":0,"x_max":303,"o":"m 189 118 l 189 118 l 189 1085 l 303 1085 l 303 71 l 233 0 l 71 0 l 0 71 l 0 1085 l 114 1085 l 114 118 l 118 113 l 185 113 l 189 118 m 187 1153 l 187 1244 l 279 1244 l 279 1153 l 187 1153 m 116 1244 l 116 1153 l 24 1153 l 24 1244 l 116 1244 z "},"Ý":{"ha":406,"x_min":0,"x_max":304,"o":"m 95 0 l 95 0 l 95 447 l 0 542 l 0 1085 l 114 1085 l 114 589 l 152 551 l 190 589 l 190 1085 l 304 1085 l 304 542 l 209 447 l 209 0 l 95 0 m 26 1153 l 26 1153 l 171 1297 l 277 1297 l 133 1153 l 26 1153 z "},"Þ":{"ha":405,"x_min":0,"x_max":303,"o":"m 114 949 l 114 949 l 233 949 l 303 878 l 303 276 l 233 205 l 114 205 l 114 0 l 0 0 l 0 1085 l 114 1085 l 114 949 m 190 323 l 190 323 l 190 831 l 185 835 l 114 835 l 114 319 l 185 319 l 190 323 z "},"ß":{"ha":406,"x_min":0,"x_max":304,"o":"m 304 1014 l 304 1014 l 304 679 l 275 650 l 304 621 l 304 139 l 233 68 l 140 68 l 140 182 l 186 182 l 190 186 l 190 573 l 170 593 l 114 593 l 114 0 l 0 0 l 0 1014 l 71 1085 l 233 1085 l 304 1014 m 114 967 l 114 967 l 114 706 l 170 706 l 190 726 l 190 967 l 186 971 l 118 971 l 114 967 z "},"à":{"ha":405,"x_min":0,"x_max":303,"o":"m 114 342 l 114 342 l 114 0 l 0 0 l 0 1015 l 71 1085 l 233 1085 l 303 1015 l 303 0 l 189 0 l 189 342 l 114 342 m 114 967 l 114 967 l 114 456 l 189 456 l 189 967 l 185 972 l 118 972 l 114 967 m 277 1153 l 170 1153 l 26 1297 l 133 1297 l 277 1153 l 277 1153 z "},"á":{"ha":405,"x_min":0,"x_max":303,"o":"m 114 342 l 114 342 l 114 0 l 0 0 l 0 1015 l 71 1085 l 233 1085 l 303 1015 l 303 0 l 189 0 l 189 342 l 114 342 m 114 967 l 114 967 l 114 456 l 189 456 l 189 967 l 185 972 l 118 972 l 114 967 m 26 1153 l 26 1153 l 170 1297 l 277 1297 l 133 1153 l 26 1153 z "},"â":{"ha":405,"x_min":0,"x_max":303,"o":"m 114 342 l 114 342 l 114 0 l 0 0 l 0 1015 l 71 1085 l 233 1085 l 303 1015 l 303 0 l 189 0 l 189 342 l 114 342 m 114 967 l 114 967 l 114 456 l 189 456 l 189 967 l 185 972 l 118 972 l 114 967 m 180 1297 l 180 1297 l 293 1153 l 199 1153 l 152 1211 l 104 1153 l 10 1153 l 123 1297 l 180 1297 z "},"ã":{"ha":405,"x_min":0,"x_max":303,"o":"m 114 342 l 114 342 l 114 0 l 0 0 l 0 1015 l 71 1085 l 233 1085 l 303 1015 l 303 0 l 189 0 l 189 342 l 114 342 m 114 967 l 114 967 l 114 456 l 189 456 l 189 967 l 185 972 l 118 972 l 114 967 m 106 1182 l 106 1182 l 106 1153 l 30 1153 l 31 1214 l 79 1263 l 193 1263 l 197 1267 l 197 1297 l 273 1297 l 273 1236 l 224 1187 l 111 1187 l 106 1182 z "},"ä":{"ha":405,"x_min":0,"x_max":303,"o":"m 114 342 l 114 342 l 114 0 l 0 0 l 0 1015 l 71 1085 l 233 1085 l 303 1015 l 303 0 l 189 0 l 189 342 l 114 342 m 114 967 l 114 967 l 114 456 l 189 456 l 189 967 l 185 972 l 118 972 l 114 967 m 187 1153 l 187 1244 l 279 1244 l 279 1153 l 187 1153 m 116 1244 l 116 1153 l 24 1153 l 24 1244 l 116 1244 z "},"å":{"ha":405,"x_min":0,"x_max":303,"o":"m 114 342 l 114 342 l 114 0 l 0 0 l 0 1015 l 71 1085 l 233 1085 l 303 1015 l 303 0 l 189 0 l 189 342 l 114 342 m 114 967 l 114 967 l 114 456 l 189 456 l 189 967 l 185 972 l 118 972 l 114 967 m 106 1221 l 106 1221 l 197 1221 l 246 1171 l 246 1080 l 197 1031 l 106 1031 l 57 1080 l 57 1171 l 106 1221 m 133 1140 l 133 1140 l 133 1111 l 137 1107 l 166 1107 l 171 1112 l 171 1140 l 166 1145 l 137 1145 l 133 1140 z "},"æ":{"ha":605,"x_min":0,"x_max":503,"o":"m 304 493 l 304 493 l 304 113 l 503 113 l 471 0 l 190 0 l 190 341 l 114 341 l 114 0 l 0 0 l 0 1014 l 71 1085 l 471 1085 l 503 971 l 304 971 l 304 607 l 455 607 l 455 493 l 304 493 m 114 967 l 114 967 l 114 455 l 190 455 l 190 971 l 118 971 l 114 967 z "},"ç":{"ha":415,"x_min":0,"x_max":313,"o":"m 118 971 l 118 971 l 114 967 l 114 118 l 118 114 l 313 114 l 281 0 l 71 0 l 0 71 l 0 1014 l 71 1085 l 281 1085 l 313 971 l 118 971 m 185 -31 l 185 -31 l 210 -31 l 261 -81 l 261 -169 l 210 -220 l 79 -220 l 79 -136 l 170 -136 l 178 -132 l 178 -119 l 170 -114 l 102 -114 l 102 0 l 185 0 l 185 -31 z "},"è":{"ha":415,"x_min":0,"x_max":313,"o":"m 281 0 l 281 0 l 71 0 l 0 71 l 0 1014 l 71 1085 l 281 1085 l 313 971 l 118 971 l 114 967 l 114 607 l 266 607 l 266 493 l 114 493 l 114 118 l 118 114 l 313 114 l 281 0 m 277 1153 l 170 1153 l 26 1297 l 133 1297 l 277 1153 l 277 1153 z "},"é":{"ha":415,"x_min":0,"x_max":313,"o":"m 281 0 l 281 0 l 71 0 l 0 71 l 0 1014 l 71 1085 l 281 1085 l 313 971 l 118 971 l 114 967 l 114 607 l 266 607 l 266 493 l 114 493 l 114 118 l 118 114 l 313 114 l 281 0 m 26 1153 l 26 1153 l 170 1297 l 277 1297 l 133 1153 l 26 1153 z "},"ê":{"ha":415,"x_min":0,"x_max":313,"o":"m 281 0 l 281 0 l 71 0 l 0 71 l 0 1014 l 71 1085 l 281 1085 l 313 971 l 118 971 l 114 967 l 114 607 l 266 607 l 266 493 l 114 493 l 114 118 l 118 114 l 313 114 l 281 0 m 180 1297 l 180 1297 l 293 1153 l 199 1153 l 152 1211 l 104 1153 l 10 1153 l 123 1297 l 180 1297 z "},"ë":{"ha":415,"x_min":0,"x_max":313,"o":"m 281 0 l 281 0 l 71 0 l 0 71 l 0 1014 l 71 1085 l 281 1085 l 313 971 l 118 971 l 114 967 l 114 607 l 266 607 l 266 493 l 114 493 l 114 118 l 118 114 l 313 114 l 281 0 m 187 1153 l 187 1244 l 279 1244 l 279 1153 l 187 1153 m 116 1244 l 116 1153 l 24 1153 l 24 1244 l 116 1244 z "},"ì":{"ha":229,"x_min":-131,"x_max":121,"o":"m 121 1085 l 121 1085 l 121 0 l 7 0 l 7 1085 l 121 1085 m 121 1153 l 14 1153 l -131 1296 l -24 1296 l 121 1153 l 121 1153 z "},"í":{"ha":229,"x_min":7,"x_max":258,"o":"m 121 1085 l 121 1085 l 121 0 l 7 0 l 7 1085 l 121 1085 m 7 1153 l 7 1153 l 151 1297 l 258 1297 l 114 1153 l 7 1153 z "},"î":{"ha":229,"x_min":-75,"x_max":208,"o":"m 121 1085 l 121 1085 l 121 0 l 7 0 l 7 1085 l 121 1085 m 95 1297 l 95 1297 l 208 1153 l 115 1153 l 66 1211 l 19 1153 l -75 1153 l 39 1297 l 95 1297 z "},"ï":{"ha":229,"x_min":-61,"x_max":189,"o":"m 121 1085 l 121 1085 l 121 0 l 7 0 l 7 1085 l 121 1085 m -61 1154 l -61 1154 l -61 1244 l 30 1244 l 30 1154 l -61 1154 m 189 1244 l 189 1244 l 189 1154 l 98 1154 l 98 1244 l 189 1244 z "},"ð":{"ha":463,"x_min":0,"x_max":361,"o":"m 250 1065 l 250 1065 l 281 1096 l 361 1015 l 303 957 l 303 71 l 232 0 l 71 0 l 0 71 l 0 572 l 71 643 l 189 643 l 189 844 l 174 828 l 94 908 l 155 970 l 106 970 l 106 1083 l 232 1083 l 250 1065 m 189 117 l 189 117 l 189 495 l 155 530 l 118 530 l 113 525 l 113 117 l 118 113 l 185 113 l 189 117 z "},"ñ":{"ha":406,"x_min":0,"x_max":304,"o":"m 71 1085 l 71 1085 l 71 1085 l 233 1085 l 304 1015 l 304 0 l 190 0 l 190 967 l 186 971 l 118 971 l 114 967 l 114 0 l 0 0 l 0 1015 l 71 1085 m 106 1182 l 106 1182 l 106 1153 l 31 1153 l 31 1214 l 80 1263 l 193 1263 l 197 1267 l 197 1297 l 273 1297 l 273 1236 l 224 1187 l 111 1187 l 106 1182 z "},"ò":{"ha":406,"x_min":0,"x_max":304,"o":"m 71 1085 l 71 1085 l 233 1085 l 304 1015 l 304 71 l 233 0 l 71 0 l 0 71 l 0 1015 l 71 1085 m 190 118 l 190 118 l 190 967 l 186 971 l 118 971 l 114 967 l 114 118 l 118 114 l 186 114 l 190 118 m 277 1153 l 170 1153 l 26 1297 l 133 1297 l 277 1153 l 277 1153 z "},"ó":{"ha":406,"x_min":0,"x_max":304,"o":"m 71 1085 l 71 1085 l 233 1085 l 304 1015 l 304 71 l 233 0 l 71 0 l 0 71 l 0 1015 l 71 1085 m 190 118 l 190 118 l 190 967 l 186 971 l 118 971 l 114 967 l 114 118 l 118 114 l 186 114 l 190 118 m 26 1153 l 26 1153 l 170 1297 l 277 1297 l 133 1153 l 26 1153 z "},"ô":{"ha":406,"x_min":0,"x_max":304,"o":"m 71 1085 l 71 1085 l 233 1085 l 304 1015 l 304 71 l 233 0 l 71 0 l 0 71 l 0 1015 l 71 1085 m 190 118 l 190 118 l 190 967 l 186 971 l 118 971 l 114 967 l 114 118 l 118 114 l 186 114 l 190 118 m 180 1297 l 180 1297 l 293 1153 l 199 1153 l 152 1211 l 104 1153 l 10 1153 l 123 1297 l 180 1297 z "},"õ":{"ha":406,"x_min":0,"x_max":304,"o":"m 71 1085 l 71 1085 l 233 1085 l 304 1015 l 304 71 l 233 0 l 71 0 l 0 71 l 0 1015 l 71 1085 m 190 118 l 190 118 l 190 967 l 186 971 l 118 971 l 114 967 l 114 118 l 118 114 l 186 114 l 190 118 m 106 1182 l 106 1182 l 106 1153 l 30 1153 l 31 1214 l 79 1263 l 193 1263 l 197 1267 l 197 1297 l 273 1297 l 273 1236 l 224 1187 l 111 1187 l 106 1182 z "},"ö":{"ha":406,"x_min":0,"x_max":304,"o":"m 71 1085 l 71 1085 l 233 1085 l 304 1015 l 304 71 l 233 0 l 71 0 l 0 71 l 0 1015 l 71 1085 m 190 118 l 190 118 l 190 967 l 186 971 l 118 971 l 114 967 l 114 118 l 118 114 l 186 114 l 190 118 m 187 1153 l 187 1244 l 279 1244 l 279 1153 l 187 1153 m 116 1244 l 116 1153 l 24 1153 l 24 1244 l 116 1244 z "},"÷":{"ha":428,"x_min":0,"x_max":326,"o":"m 0 499 l 0 499 l 0 606 l 326 606 l 326 499 l 0 499 m 110 746 l 110 746 l 216 746 l 216 640 l 110 640 l 110 746 m 110 359 l 110 359 l 110 465 l 216 465 l 216 359 l 110 359 z "},"ø":{"ha":405,"x_min":0,"x_max":303,"o":"m 233 956 l 233 956 l 303 885 l 303 71 l 233 0 l 71 0 l 0 71 l 0 885 l 71 956 l 233 956 m 189 118 l 189 118 l 189 429 l 114 203 l 114 118 l 118 114 l 185 114 l 189 118 m 114 838 l 114 838 l 114 534 l 189 759 l 189 838 l 185 842 l 118 842 l 114 838 z "},"ù":{"ha":405,"x_min":0,"x_max":303,"o":"m 189 118 l 189 118 l 189 1085 l 303 1085 l 303 71 l 233 0 l 71 0 l 0 71 l 0 1085 l 114 1085 l 114 118 l 118 113 l 185 113 l 189 118 m 277 1153 l 170 1153 l 26 1297 l 133 1297 l 277 1153 l 277 1153 z "},"ú":{"ha":405,"x_min":0,"x_max":303,"o":"m 189 118 l 189 118 l 189 1085 l 303 1085 l 303 71 l 233 0 l 71 0 l 0 71 l 0 1085 l 114 1085 l 114 118 l 118 113 l 185 113 l 189 118 m 26 1153 l 26 1153 l 170 1297 l 277 1297 l 133 1153 l 26 1153 z "},"û":{"ha":405,"x_min":0,"x_max":303,"o":"m 189 118 l 189 118 l 189 1085 l 303 1085 l 303 71 l 233 0 l 71 0 l 0 71 l 0 1085 l 114 1085 l 114 118 l 118 113 l 185 113 l 189 118 m 180 1297 l 180 1297 l 293 1153 l 199 1153 l 152 1211 l 104 1153 l 10 1153 l 123 1297 l 180 1297 z "},"ü":{"ha":405,"x_min":0,"x_max":303,"o":"m 189 118 l 189 118 l 189 1085 l 303 1085 l 303 71 l 233 0 l 71 0 l 0 71 l 0 1085 l 114 1085 l 114 118 l 118 113 l 185 113 l 189 118 m 187 1153 l 187 1244 l 279 1244 l 279 1153 l 187 1153 m 116 1244 l 116 1153 l 24 1153 l 24 1244 l 116 1244 z "},"ý":{"ha":406,"x_min":0,"x_max":304,"o":"m 95 0 l 95 0 l 95 447 l 0 542 l 0 1085 l 114 1085 l 114 589 l 152 551 l 190 589 l 190 1085 l 304 1085 l 304 542 l 209 447 l 209 0 l 95 0 m 26 1153 l 26 1153 l 171 1297 l 277 1297 l 133 1153 l 26 1153 z "},"þ":{"ha":406,"x_min":0,"x_max":304,"o":"m 233 948 l 233 948 l 304 878 l 304 275 l 233 205 l 114 205 l 114 0 l 0 0 l 0 1085 l 114 1085 l 114 948 l 233 948 m 190 323 l 190 323 l 190 830 l 186 834 l 156 834 l 114 792 l 114 361 l 156 319 l 186 319 l 190 323 z "},"ÿ":{"ha":406,"x_min":0,"x_max":304,"o":"m 95 0 l 95 0 l 95 447 l 0 542 l 0 1085 l 114 1085 l 114 589 l 152 551 l 190 589 l 190 1085 l 304 1085 l 304 542 l 209 447 l 209 0 l 95 0 m 187 1153 l 187 1244 l 279 1244 l 279 1153 l 187 1153 m 116 1244 l 116 1153 l 24 1153 l 24 1244 l 116 1244 z "},"ˆ":{"ha":385,"x_min":0,"x_max":283,"o":"m 170 1297 l 170 1297 l 283 1153 l 190 1153 l 142 1211 l 94 1153 l 0 1153 l 113 1297 l 170 1297 z "},"ˇ":{"ha":385,"x_min":0,"x_max":283,"o":"m 170 1153 l 113 1153 l 0 1297 l 94 1297 l 142 1239 l 190 1297 l 283 1297 l 170 1153 l 170 1153 z "},"˘":{"ha":345,"x_min":0,"x_max":243,"o":"m 167 1241 l 167 1241 l 167 1297 l 243 1297 l 243 1209 l 186 1153 l 57 1153 l 0 1209 l 0 1297 l 76 1297 l 76 1241 l 88 1229 l 155 1229 l 167 1241 z "},"˙":{"ha":193,"x_min":0,"x_max":91,"o":"m 91 1244 l 91 1244 l 91 1153 l 0 1153 l 0 1244 l 91 1244 z "},"˚":{"ha":292,"x_min":0,"x_max":190,"o":"m 50 1343 l 50 1343 l 141 1343 l 190 1293 l 190 1202 l 141 1153 l 50 1153 l 0 1202 l 0 1293 l 50 1343 m 76 1262 l 76 1262 l 76 1233 l 81 1229 l 109 1229 l 114 1234 l 114 1262 l 109 1267 l 81 1267 l 76 1262 z "},"˛":{"ha":292,"x_min":0,"x_max":191,"o":"m 137 -83 l 137 -83 l 191 -136 l 123 -203 l 43 -203 l 0 -161 l 0 -80 l 78 -2 l 132 -56 l 76 -112 l 76 -128 l 92 -128 l 137 -83 z "},"˜":{"ha":345,"x_min":0,"x_max":243,"o":"m 76 1182 l 76 1182 l 76 1153 l 0 1153 l 1 1214 l 50 1263 l 163 1263 l 168 1267 l 168 1297 l 243 1297 l 243 1236 l 194 1187 l 81 1187 l 76 1182 z "},"‘":{"ha":297,"x_min":0,"x_max":195,"o":"m 195 827 l 86 827 l 0 1085 l 109 1085 l 195 827 l 195 827 z "},"’":{"ha":297,"x_min":0,"x_max":195,"o":"m 0 827 l 0 827 l 86 1085 l 195 1085 l 109 827 l 0 827 z "},"“":{"ha":464,"x_min":0,"x_max":362,"o":"m 276 1085 l 362 827 l 253 827 l 167 1085 l 276 1085 l 276 1085 m 109 1085 l 195 827 l 86 827 l 0 1085 l 109 1085 l 109 1085 z "},"”":{"ha":464,"x_min":0,"x_max":362,"o":"m 86 1085 l 86 1085 l 195 1085 l 109 827 l 0 827 l 86 1085 m 253 1085 l 253 1085 l 362 1085 l 276 827 l 167 827 l 253 1085 z "},"†":{"ha":435,"x_min":0,"x_max":334,"o":"m 224 1085 l 224 1085 l 224 865 l 334 865 l 334 751 l 224 751 l 224 0 l 110 0 l 110 751 l 0 751 l 0 865 l 110 865 l 110 1085 l 224 1085 z "},"‡":{"ha":435,"x_min":0,"x_max":334,"o":"m 334 751 l 334 751 l 224 751 l 224 334 l 334 334 l 334 220 l 224 220 l 224 0 l 110 0 l 110 220 l 0 220 l 0 334 l 110 334 l 110 751 l 0 751 l 0 865 l 110 865 l 110 1085 l 224 1085 l 224 865 l 334 865 l 334 751 z "},"‹":{"ha":291,"x_min":0,"x_max":189,"o":"m 189 519 l 189 519 l 189 401 l 0 534 l 0 614 l 189 746 l 189 629 l 111 574 l 189 519 z "},"›":{"ha":291,"x_min":0,"x_max":189,"o":"m 0 519 l 78 574 l 0 629 l 0 746 l 189 614 l 189 534 l 0 401 l 0 519 l 0 519 z "},"⁄":{"ha":597,"x_min":0,"x_max":495,"o":"m 378 1085 l 378 1085 l 495 1085 l 117 0 l 0 0 l 378 1085 z "},"₣":{"ha":458,"x_min":0,"x_max":357,"o":"m 53 1014 l 53 1014 l 124 1085 l 357 1085 l 357 971 l 171 971 l 167 967 l 167 607 l 319 607 l 319 493 l 167 493 l 167 360 l 266 360 l 266 247 l 167 247 l 167 0 l 53 0 l 53 247 l 0 247 l 0 360 l 53 360 l 53 1014 z "},"₤":{"ha":466,"x_min":0,"x_max":364,"o":"m 174 410 l 174 410 l 174 114 l 364 114 l 364 0 l 0 0 l 0 96 l 60 156 l 60 410 l 16 410 l 16 524 l 60 524 l 60 562 l 16 562 l 16 675 l 60 675 l 60 1014 l 131 1085 l 292 1085 l 363 1014 l 363 819 l 250 819 l 250 967 l 245 971 l 178 971 l 174 967 l 174 675 l 281 675 l 281 562 l 174 562 l 174 524 l 281 524 l 281 410 l 174 410 z "},"₧":{"ha":792,"x_min":0,"x_max":690,"o":"m 550 842 l 550 842 l 546 837 l 546 570 l 551 566 l 619 566 l 690 494 l 690 71 l 619 0 l 432 0 l 432 114 l 572 114 l 576 118 l 576 447 l 572 452 l 503 452 l 432 523 l 432 842 l 402 842 l 402 0 l 288 0 l 288 842 l 258 842 l 258 564 l 187 493 l 114 493 l 114 0 l 0 0 l 0 1085 l 187 1085 l 258 1015 l 258 955 l 690 955 l 690 842 l 550 842 m 144 611 l 144 611 l 144 967 l 140 972 l 114 972 l 114 607 l 140 607 l 144 611 z "},"€":{"ha":458,"x_min":0,"x_max":356,"o":"m 123 1085 l 123 1085 l 286 1085 l 356 1014 l 356 751 l 243 751 l 243 967 l 238 971 l 171 971 l 167 967 l 167 675 l 265 675 l 265 562 l 167 562 l 167 524 l 265 524 l 265 410 l 167 410 l 167 118 l 171 113 l 238 113 l 243 118 l 243 334 l 356 334 l 356 71 l 286 0 l 123 0 l 53 71 l 53 410 l 0 410 l 0 524 l 53 524 l 53 562 l 0 562 l 0 675 l 53 675 l 53 1014 l 123 1085 z "},"№":{"ha":722,"x_min":0,"x_max":621,"o":"m 370 216 l 370 216 l 370 307 l 621 307 l 621 216 l 370 216 m 554 861 l 554 861 l 621 795 l 621 465 l 554 398 l 437 398 l 370 465 l 370 795 l 437 861 l 554 861 m 522 506 l 522 506 l 522 754 l 513 762 l 477 762 l 469 754 l 469 506 l 477 497 l 513 497 l 522 506 m 68 1078 l 68 1078 l 227 1078 l 296 1009 l 296 0 l 190 0 l 190 965 l 183 971 l 113 971 l 106 965 l 106 0 l 0 0 l 0 1009 l 68 1078 z "},"™":{"ha":770,"x_min":0,"x_max":668,"o":"m 385 1085 l 385 1085 l 602 1085 l 668 1019 l 668 562 l 569 562 l 569 978 l 560 987 l 543 987 l 543 562 l 444 562 l 444 987 l 426 987 l 417 978 l 417 562 l 319 562 l 319 1019 l 385 1085 m 0 987 l 0 987 l 0 1085 l 288 1085 l 288 987 l 193 987 l 193 562 l 95 562 l 95 987 l 0 987 z "},"∂":{"ha":405,"x_min":0,"x_max":303,"o":"m 121 949 l 121 949 l 233 949 l 303 879 l 303 72 l 233 1 l 71 1 l 0 72 l 0 475 l 71 547 l 189 547 l 189 831 l 185 836 l 121 836 l 121 949 m 189 119 l 189 119 l 189 433 l 118 433 l 113 429 l 113 119 l 118 115 l 185 115 l 189 119 z "},"∆":{"ha":405,"x_min":0,"x_max":303,"o":"m 98 949 l 98 949 l 205 949 l 303 85 l 303 1 l 0 1 l 0 88 l 98 949 m 118 115 l 118 115 l 186 115 l 152 384 l 118 115 z "},"∏":{"ha":406,"x_min":0,"x_max":304,"o":"m 0 0 l 0 0 l 0 1085 l 304 1085 l 304 0 l 190 0 l 190 972 l 114 972 l 114 0 l 0 0 z "},"∑":{"ha":408,"x_min":0,"x_max":306,"o":"m 129 971 l 129 971 l 306 543 l 129 114 l 304 114 l 304 0 l 0 0 l 0 90 l 187 543 l 0 996 l 0 1085 l 304 1085 l 304 971 l 129 971 z "},"−":{"ha":443,"x_min":0,"x_max":341,"o":"m 0 475 l 0 475 l 0 581 l 341 581 l 341 475 l 0 475 z "},"√":{"ha":634,"x_min":0,"x_max":532,"o":"m 357 1085 l 357 1085 l 532 1085 l 532 971 l 446 971 l 184 0 l 83 0 l 0 334 l 116 334 l 133 264 l 357 1085 z "},"∞":{"ha":701,"x_min":0,"x_max":600,"o":"m 353 665 l 353 665 l 530 665 l 600 597 l 600 476 l 530 407 l 353 407 l 300 461 l 245 407 l 68 407 l 0 476 l 0 597 l 68 665 l 245 665 l 300 611 l 353 665 m 374 536 l 374 536 l 397 513 l 486 513 l 493 520 l 493 553 l 486 559 l 397 559 l 374 536 m 106 520 l 106 520 l 113 513 l 201 513 l 224 536 l 201 559 l 113 559 l 106 553 l 106 520 z "},"∫":{"ha":398,"x_min":0,"x_max":296,"o":"m 92 1015 l 92 1015 l 162 1085 l 296 1085 l 296 971 l 210 971 l 205 967 l 205 71 l 134 0 l 0 0 l 0 114 l 87 114 l 92 118 l 92 1015 z "},"≈":{"ha":572,"x_min":0,"x_max":470,"o":"m 106 591 l 106 591 l 106 556 l 0 556 l 0 635 l 68 705 l 357 705 l 364 711 l 364 746 l 470 746 l 470 667 l 401 598 l 113 598 l 106 591 m 106 417 l 106 417 l 106 382 l 0 382 l 0 461 l 68 530 l 357 530 l 364 536 l 364 572 l 470 572 l 470 492 l 401 424 l 113 424 l 106 417 z "},"≤":{"ha":359,"x_min":0,"x_max":258,"o":"m 0 339 l 0 339 l 0 446 l 258 446 l 258 339 l 0 339 m 0 619 l 0 619 l 0 704 l 258 842 l 258 729 l 132 662 l 258 594 l 258 481 l 0 619 z "},"≥":{"ha":359,"x_min":0,"x_max":258,"o":"m 258 339 l 0 339 l 0 446 l 258 446 l 258 339 l 258 339 m 258 619 l 0 481 l 0 594 l 125 662 l 0 729 l 0 842 l 258 704 l 258 619 l 258 619 z "},"":{"ha":744,"x_min":0,"x_max":642,"o":"m 458 967 l 458 967 l 458 607 l 594 607 l 594 493 l 458 493 l 458 0 l 344 0 l 344 493 l 114 493 l 114 0 l 0 0 l 0 1015 l 71 1085 l 266 1085 l 298 971 l 118 971 l 114 967 l 114 607 l 344 607 l 344 1015 l 414 1085 l 610 1085 l 642 971 l 462 971 l 458 967 z "},"":{"ha":756,"x_min":0,"x_max":654,"o":"m 622 1085 l 622 1085 l 654 971 l 527 971 l 527 0 l 413 0 l 413 971 l 241 971 l 241 0 l 127 0 l 127 971 l 0 971 l 33 1085 l 622 1085 z "}}}
